<svg xmlns="http://www.w3.org/2000/svg" width="19.996" height="19.996" viewBox="0 0 19.996 19.996">
  <g id="vuesax_outline_edit-2" data-name="vuesax/outline/edit-2" transform="translate(-684 -252)">
    <g id="edit-2" transform="translate(684 252)">
      <path id="Vector" d="M1.906,15.075a1.909,1.909,0,0,1-1.325-.5,1.984,1.984,0,0,1-.567-1.691l.308-2.7a3,3,0,0,1,.725-1.55l6.84-7.24c1.708-1.808,3.491-1.858,5.3-.15s1.858,3.491.15,5.3L6.5,13.784a3,3,0,0,1-1.508.808l-2.683.458C2.165,15.059,2.04,15.075,1.906,15.075ZM10.563,1.236a2.545,2.545,0,0,0-1.766,1L1.956,9.485a1.924,1.924,0,0,0-.392.833l-.308,2.7a.732.732,0,0,0,.183.642.751.751,0,0,0,.65.15l2.683-.458a1.862,1.862,0,0,0,.808-.433l6.84-7.24c1.033-1.1,1.408-2.116-.1-3.533A2.635,2.635,0,0,0,10.563,1.236Z" transform="translate(2.707 2.46)" fill="#292d32"/>
      <path id="Vector-2" data-name="Vector" d="M5.156,5.539H5.1A5.715,5.715,0,0,1,.007.723.635.635,0,0,1,.532.007a.635.635,0,0,1,.717.525A4.476,4.476,0,0,0,5.231,4.3a.626.626,0,0,1,.558.683A.645.645,0,0,1,5.156,5.539Z" transform="translate(9.289 4.856)" fill="#292d32"/>
      <path id="Vector-3" data-name="Vector" d="M0,0H20V20H0Z" fill="none" opacity="0"/>
    </g>
  </g>
</svg>
