<svg width="100" height="200" viewBox="0 0 239 45" fill="none" xmlns="http://www.w3.org/2000/svg">
<path d="M23.6867 13.6138C24.6337 12.9582 25.5806 12.339 26.6005 11.647C25.6899 10.0444 24.8158 8.47823 23.978 6.94849C23.5046 6.11077 23.0311 5.30948 22.594 4.43534C21.6834 2.65064 20.3722 1.33943 18.4418 0.574558C18.6239 0.574558 18.8061 0.538135 18.9882 0.538135C22.8125 0.538135 26.6369 0.574558 30.4612 0.501713C31.6996 0.46529 32.4645 1.01163 33.0472 1.95861C33.8485 3.30624 34.6498 4.6903 35.4511 6.03793C35.524 6.18362 35.6332 6.29288 35.7425 6.475C36.6895 6.03793 37.6 5.60086 38.6927 5.09094C38.547 5.45517 38.4742 5.63728 38.3649 5.85581C37.0537 8.33254 35.7061 10.8093 34.3949 13.3224C34.1399 13.7959 33.885 13.978 33.3386 13.978C30.352 13.9052 27.4018 13.8688 24.4151 13.8323C24.1966 13.8323 24.0145 13.7959 23.7959 13.7959C23.7231 13.7231 23.7231 13.6502 23.6867 13.6138Z" fill="#318161"/>
<path d="M45.2128 29.0568C45.0307 29.3846 44.8486 29.7124 44.6664 30.0402C42.8817 33.2818 41.0606 36.487 39.2759 39.7286C38.8753 40.4934 38.2925 40.9305 37.4548 40.9669C35.8886 41.0398 34.3225 41.0762 32.7199 41.1126C31.4087 41.149 31.5908 41.0398 31.5179 42.2781C31.4815 42.9337 31.4087 43.6258 31.3723 44.4999C30.8988 43.735 30.5345 43.1887 30.1339 42.6059C28.8591 40.5663 27.5479 38.5631 26.2731 36.5234C26.1274 36.2684 26.0546 35.7949 26.2003 35.5764C27.7664 32.8447 29.3326 30.113 30.9352 27.3814C30.9716 27.3085 31.0445 27.2357 31.2266 26.9807C31.3358 28.0734 31.4451 29.0204 31.4815 29.9309C31.4815 30.5137 31.7001 30.6958 32.2464 30.6594C35.1238 30.623 37.9647 30.6594 40.8421 30.623C42.5175 30.623 43.8652 29.9674 45.2128 29.0568Z" fill="#318161"/>
<path d="M31.8093 18.7494C34.9781 16.8554 38.074 14.9978 41.2792 13.1039C41.8619 14.0873 42.3718 14.9978 42.9182 15.9084C43.9744 17.7295 45.1035 19.5507 46.1234 21.4082C47.1796 23.3386 46.779 25.3054 45.6863 27.0537C44.3022 29.3119 41.2063 30.4045 38.6932 29.6761C38.4746 29.6033 38.1833 29.4576 38.074 29.2755C35.9615 25.8153 33.9218 22.3188 31.8093 18.7494Z" fill="#318161"/>
<path d="M16.0387 17.256C12.8699 15.4349 9.77402 13.6502 6.56885 11.7926C7.26087 10.6271 7.91648 9.49802 8.57208 8.36893C9.44622 6.91203 10.2839 5.41871 11.1581 3.96181C12.4329 1.81288 14.7639 0.756632 17.2042 1.23012C19.863 1.74004 21.4292 3.48832 22.2669 5.92862C22.3398 6.18358 22.3033 6.5478 22.1577 6.80276C20.2273 10.19 18.2605 13.5773 16.2936 16.9646C16.2572 17.0375 16.1844 17.0739 16.0387 17.256Z" fill="#318161"/>
<path d="M3.76383 26.3982C2.56188 32.3351 4.09163 36.7422 9.15435 41.6592C5.47568 42.4969 2.81684 41.1493 1.39637 37.762C-0.351912 33.6463 0.12158 29.4941 1.43279 25.3784C2.37977 22.3917 3.65456 19.5144 5.25715 16.5277C7.18754 21.3355 11.3397 23.4116 15.6011 25.4512C20.9916 28.0372 22.1572 34.0469 18.26 38.4176C17.5315 39.2553 16.5481 39.8745 15.674 40.603C15.7832 40.8579 15.9289 41.1129 16.0382 41.3678C17.313 41.295 18.6242 41.2221 19.8625 41.1493C16.5481 43.4803 12.141 42.4241 8.93581 37.6163C6.6412 34.229 5.43926 30.1497 3.76383 26.3982Z" fill="#318161"/>
<g clip-path="url(#clip0_2_3845)">
<path d="M72.5599 21.5947C73.0999 21.7218 73.5765 21.8806 74.0212 22.1348C74.466 22.3571 74.879 22.7066 75.1967 23.0878C75.5143 23.5008 75.8003 24.0091 75.9591 24.6127C76.1497 25.2163 76.245 25.9787 76.245 26.8365V27.4083C76.245 28.4884 76.1179 29.4097 75.8956 30.1404C75.6732 30.8711 75.292 31.5064 74.7837 31.9512C74.2754 32.4277 73.6082 32.7454 72.814 32.9678C72.0198 33.1902 71.0668 33.2855 69.9549 33.2855H65.4437C64.4272 33.2855 63.5059 33.1902 62.6799 32.9678C61.8539 32.7772 61.155 32.4277 60.5514 31.9512C59.9796 31.4747 59.503 30.8393 59.2171 30.0769C58.8994 29.3144 58.7406 28.3614 58.7406 27.2495C58.7406 26.1693 58.8994 25.2798 59.2171 24.5174C59.5348 23.7867 59.9796 23.1513 60.5514 22.7066C61.1232 22.2301 61.8539 21.9124 62.6799 21.69C63.5059 21.4994 64.4272 21.3723 65.4437 21.3723H67.9534L72.5599 21.5947ZM71.0032 28.0119C71.035 27.8531 71.0668 27.726 71.0668 27.5989V26.4235C71.0668 25.8834 70.9397 25.534 70.6855 25.2798C70.4314 25.0575 69.9866 24.9304 69.3513 24.9304H65.539C65.1578 24.9304 64.8401 24.9621 64.6495 25.0575C64.4272 25.1528 64.2683 25.2481 64.173 25.4069C64.0777 25.5657 64.0142 25.7246 63.9824 25.8834C63.9506 26.074 63.9506 26.2329 63.9506 26.3917V27.5672C63.9506 27.8848 64.0777 28.1708 64.3318 28.4567C64.586 28.7426 64.999 28.8697 65.539 28.8697H69.3195C69.7007 28.8697 70.0184 28.8379 70.2408 28.7426" fill="#318161"/>
<path d="M88.4758 28.8696V20.9275C86.9827 20.6733 85.7755 20.3556 84.8225 19.9744C83.8694 19.5932 83.1387 19.1802 82.5987 18.7672C82.1539 18.4178 81.8362 18.0365 81.5821 17.6871C81.3597 17.3059 81.1691 16.9564 81.0738 16.5752C80.9785 16.194 80.915 15.8445 80.8832 15.4951C80.8514 15.1456 80.8514 14.7962 80.8514 14.4785V14.2561H85.5849C85.5849 14.3832 85.6167 14.542 85.6485 14.7009C85.6802 14.8597 85.7755 15.0185 85.9344 15.2092C86.0932 15.3998 86.3156 15.5904 86.665 15.781C86.9827 15.9716 87.4593 16.1622 88.0311 16.3846C88.6029 16.5752 89.3654 16.7976 90.2549 16.9882C91.1444 17.1788 92.2563 17.4012 93.5588 17.56V33.3172H85.1084C83.8694 33.3172 82.8528 33.2219 82.0268 33.0313C81.2009 32.8406 80.5337 32.4912 80.0572 32.0464C79.5489 31.5699 79.1995 30.9345 79.0088 30.1403C78.8182 29.3461 78.6912 28.3295 78.6912 27.1223V24.4855H83.7741V27.1223C83.7741 27.5035 83.8059 27.7895 83.8377 28.0118C83.8694 28.2342 83.9647 28.4248 84.0918 28.5519C84.2189 28.679 84.3777 28.7743 84.5683 28.8061C84.7589 28.8696 85.0449 28.8696 85.3943 28.8696H88.4758Z" fill="#318161"/>
<path d="M107.728 19.7838C107.728 19.3708 107.569 19.0849 107.283 18.9261C106.965 18.7672 106.584 18.6719 106.076 18.6719H97.7523V14.2561H106.393C107.696 14.2561 108.776 14.4149 109.602 14.7644C110.428 15.1139 111.095 15.5904 111.572 16.194C112.048 16.7976 112.366 17.4965 112.556 18.2907C112.747 19.0849 112.811 19.9427 112.811 20.8322V33.3172H102.867C101.946 33.3172 101.088 33.2219 100.294 32.9995C99.4995 32.7771 98.8324 32.4594 98.2606 32.0147C97.6887 31.5699 97.244 31.0298 96.9263 30.3309C96.6086 29.6638 96.4498 28.8696 96.4498 27.9483V26.614C96.4498 25.7563 96.6086 24.9621 96.9263 24.2632C97.244 23.5643 97.6887 22.9924 98.2606 22.4841C98.8324 21.9758 99.5631 21.6264 100.421 21.3722C101.279 21.1181 102.232 20.991 103.28 20.991H107.696V19.7838H107.728ZM103.757 25.4386C103.344 25.4386 102.994 25.4704 102.74 25.5339C102.486 25.5974 102.263 25.6927 102.105 25.8516C101.946 25.9787 101.85 26.1693 101.787 26.3599C101.723 26.5823 101.692 26.8364 101.692 27.1223C101.692 27.8212 101.819 28.2978 102.073 28.5519C102.327 28.7743 102.867 28.9014 103.693 28.9014H107.696V25.4386H103.757Z" fill="#318161"/>
<path d="M127.011 24.7715V27.0271H122.436V18.4178C122.436 17.6236 122.563 16.9882 122.849 16.4164C123.135 15.8764 123.516 15.4316 124.025 15.0821C124.533 14.7327 125.105 14.4785 125.772 14.3197C126.439 14.1609 127.17 14.0656 127.964 14.0656H129.807C130.601 14.0656 131.3 14.1291 131.967 14.2879C132.634 14.4468 133.206 14.6692 133.714 15.0186C134.222 15.3363 134.604 15.781 134.89 16.3529C135.175 16.8929 135.334 17.5601 135.334 18.3543V20.9911H139.655V27.2812C139.655 28.2343 139.496 29.0603 139.178 29.8227C138.861 30.5534 138.448 31.1887 137.908 31.7288C137.368 32.2689 136.7 32.6501 135.938 32.936C135.175 33.2219 134.35 33.349 133.46 33.349H121.579C120.721 33.349 119.927 33.2219 119.196 32.936C118.465 32.6501 117.83 32.2689 117.29 31.7288C116.75 31.1887 116.305 30.5534 116.019 29.8227C115.701 29.092 115.543 28.2343 115.543 27.3448V20.3557H120.626V27.5671C120.626 28.0754 120.753 28.4249 121.007 28.6155C121.261 28.8061 121.769 28.9014 122.595 28.9014H132.507C133.333 28.9014 133.873 28.8061 134.159 28.6155C134.445 28.4249 134.604 28.0754 134.604 27.5671V24.7715H127.011ZM127.011 20.9911H131.395V19.2438C131.395 18.8626 131.3 18.5767 131.077 18.3543C130.855 18.1319 130.633 18.0366 130.378 18.0366H128.059C127.742 18.0366 127.488 18.1319 127.297 18.3543C127.106 18.5449 127.011 18.8626 127.011 19.2438V20.9911Z" fill="#318161"/>
<path d="M151.759 28.8696V20.9275C150.266 20.6733 149.058 20.3556 148.105 19.9744C147.152 19.5932 146.422 19.1802 145.881 18.7672C145.437 18.4178 145.119 18.0365 144.865 17.6871C144.642 17.3059 144.452 16.9564 144.357 16.5752C144.261 16.194 144.198 15.8445 144.166 15.4951C144.134 15.1456 144.134 14.7962 144.134 14.4785V14.2561H148.868C148.868 14.3832 148.899 14.542 148.931 14.7009C148.963 14.8597 149.058 15.0185 149.217 15.2092C149.376 15.3998 149.598 15.5904 149.948 15.781C150.266 15.9716 150.742 16.1622 151.314 16.3846C151.886 16.5752 152.648 16.7976 153.538 16.9882C154.427 17.1788 155.539 17.4012 156.842 17.56V33.3172H148.391C147.152 33.3172 146.136 33.2219 145.31 33.0313C144.484 32.8406 143.817 32.4912 143.34 32.0464C142.832 31.5699 142.482 30.9345 142.292 30.1403C142.101 29.3461 141.974 28.3295 141.974 27.1223V24.4855H147.057V27.1223C147.057 27.5035 147.089 27.7895 147.12 28.0118C147.152 28.2342 147.248 28.4248 147.375 28.5519C147.502 28.679 147.66 28.7743 147.851 28.8061C148.042 28.8696 148.328 28.8696 148.677 28.8696H151.759Z" fill="#318161"/>
<path d="M170.851 20.991C172.758 20.991 174.219 21.4675 175.299 22.4524C176.379 23.4372 176.887 24.835 176.887 26.6776V28.0118C176.887 28.9331 176.729 29.7273 176.411 30.3945C176.093 31.0616 175.68 31.6017 175.14 32.0464C174.6 32.4594 173.965 32.7771 173.234 32.9995C172.503 33.1901 171.709 33.3172 170.851 33.3172H160.4V19.4979C160.4 18.386 160.559 17.4647 160.908 16.7976C161.257 16.1304 161.702 15.5904 162.242 15.2092C162.814 14.8279 163.481 14.5738 164.212 14.4467C164.974 14.3196 165.769 14.2561 166.626 14.2561H175.934V18.4495H166.944C166.34 18.4495 165.927 18.5766 165.705 18.8308C165.483 19.0849 165.356 19.4661 165.356 19.9744V21.0228H170.851V20.991ZM165.324 25.4386V28.9014H169.581C170.407 28.9014 170.947 28.7743 171.233 28.5519C171.519 28.3295 171.677 27.9483 171.677 27.44V27.0588C171.677 26.487 171.519 26.074 171.233 25.8198C170.947 25.5657 170.375 25.4386 169.517 25.4386H165.324Z" fill="#318161"/>
<path d="M185.497 33.3173C184.639 33.3173 183.845 33.222 183.114 32.9996C182.383 32.809 181.748 32.4913 181.208 32.0465C180.668 31.6335 180.255 31.0617 179.937 30.3946C179.62 29.7274 179.492 28.9332 179.492 28.0119V24.4539H184.575V27.5672C184.575 28.0755 184.702 28.4249 184.925 28.6155C185.147 28.8061 185.687 28.9014 186.481 28.9014H189.785V20.0381C189.785 19.498 189.658 19.1168 189.404 18.9579C189.15 18.7673 188.769 18.672 188.292 18.672H186.068C185.592 18.672 185.211 18.7355 184.957 18.8944C184.702 19.0532 184.575 19.4027 184.575 19.9745V21.0229H179.492V19.5298C179.492 18.7038 179.588 17.9731 179.778 17.306C179.969 16.6388 180.287 16.0988 180.731 15.654C181.176 15.2092 181.78 14.8598 182.51 14.6374C183.241 14.415 184.194 14.288 185.306 14.288H188.642C189.754 14.288 190.707 14.3833 191.501 14.6056C192.295 14.828 192.93 15.1139 193.407 15.5587C193.915 15.9717 194.265 16.5435 194.487 17.2107C194.71 17.8778 194.837 18.672 194.837 19.5933V33.3808H185.497V33.3173Z" fill="#318161"/>
<path d="M206.718 25.4386H203.223V33.3172H198.141V21.8806C198.141 19.3073 198.744 17.4012 199.92 16.1305C201.095 14.8597 203.001 14.2244 205.638 14.2244H217.329V18.6719H205.733C204.875 18.6719 204.24 18.8308 203.827 19.1802C203.414 19.5297 203.223 20.1333 203.223 21.0228H212.468C213.802 21.0228 214.914 21.1181 215.804 21.3087C216.693 21.4993 217.424 21.8488 217.964 22.3253C218.504 22.8018 218.885 23.469 219.108 24.3267C219.33 25.1527 219.457 26.2328 219.457 27.5353V33.3172H214.374V27.8213C214.374 26.2328 213.739 25.4386 212.5 25.4386H211.483V30.8393H206.718V25.4386Z" fill="#318161"/>
<path d="M233.658 33.3172V20.991C233.658 20.6733 233.626 20.3874 233.531 20.1015C233.435 19.8156 233.276 19.5614 233.022 19.3391C232.8 19.1167 232.482 18.9578 232.069 18.8308C231.688 18.7037 231.212 18.6401 230.608 18.6401C230.036 18.6401 229.56 18.7037 229.178 18.8308C228.797 18.9578 228.479 19.1167 228.257 19.3391C228.035 19.5614 227.876 19.8156 227.781 20.1015C227.685 20.3874 227.653 20.6733 227.653 20.991V33.2854H222.57V20.5463C222.57 19.3073 222.793 18.2907 223.206 17.4329C223.619 16.607 224.191 15.9398 224.921 15.4633C225.652 14.9868 226.478 14.6373 227.463 14.4467C228.416 14.2561 229.464 14.129 230.576 14.129C231.72 14.129 232.8 14.2243 233.785 14.4149C234.77 14.6056 235.627 14.955 236.39 15.4315C237.12 15.9081 237.692 16.5752 238.137 17.4012C238.55 18.2272 238.772 19.2755 238.772 20.5145V33.2854H233.658V33.3172Z" fill="#318161"/>
<path d="M65.7932 18.4813C65.6026 18.0048 65.3802 17.5283 65.1896 17.0517C65.9203 16.6705 66.6192 16.2893 67.3181 15.9081C67.6993 15.7175 68.0805 15.5268 68.4618 15.3045C69.2242 14.8597 70.0502 14.6691 70.9397 14.8597C70.8762 14.7962 70.8126 14.7644 70.7491 14.7326C69.3195 13.8113 67.8582 12.8901 66.4603 11.937C65.9838 11.6193 65.6026 11.6511 65.1261 11.8735C64.4907 12.1912 63.8871 12.5088 63.2517 12.8265C63.1882 12.8583 63.1247 12.8901 63.0294 12.9218C62.7434 12.5088 62.4893 12.1276 62.2351 11.6829C62.2034 11.8417 62.2034 11.937 62.1716 12.0323C62.0763 13.3031 61.981 14.542 61.8539 15.8128C61.8222 16.0351 61.8857 16.194 62.1081 16.3211C63.2517 17.02 64.3636 17.7189 65.5073 18.4178C65.5708 18.4813 65.6661 18.5131 65.7297 18.5448C65.7297 18.5131 65.7614 18.5131 65.7932 18.4813Z" fill="#318161"/>
<path d="M67.7628 21.6899C69.383 21.7852 71.0032 21.8487 72.6234 21.944C72.6552 21.3404 72.6869 20.7686 72.6869 20.165C72.7187 19.4026 72.7505 18.6401 72.7822 17.8777C72.814 16.7658 72.2104 15.8127 71.162 15.3997C70.0501 14.955 69.0336 15.2091 68.1123 15.9398C68.017 16.0033 67.9534 16.1622 67.9534 16.2892C67.8581 18.0365 67.7946 19.7838 67.6993 21.531C67.7628 21.5628 67.7628 21.5946 67.7628 21.6899Z" fill="#318161"/>
</g>
<defs>
<clipPath id="clip0_2_3845">
<rect width="180" height="21.6343" fill="white" transform="translate(58.7406 11.6829)"/>
</clipPath>
</defs>
</svg>
